# xmcd
#
# Track frame offsets: 
#        150
#        38720
#        75430
#        95422
#        109000
#        143172
#        160170
#        188132
#        218355
#        240757
#
# Disc length: 3602 seconds
#
# Revision: 1
# Processed by: cddbd v1.5.2PL0 Copyright (c) Steve Scherf et al.
# Submitted via: ExactAudioCopy v0.99pb4
#
DISCID=6c0e100a
DTITLE=Wolfgang Muthspiel - Loaded, Like New
DYEAR=1995
DGENRE=Jazz
TTITLE0=Shift To The Rite
TTITLE1=With A Little Help From My Friends
TTITLE2=Rocket
TTITLE3=Hands
TTITLE4=Sheets Of Sound
TTITLE5=Shorter
TTITLE6=In Absence Of
TTITLE7=November 8th
TTITLE8=All My Loving
TTITLE9=The Heartbroken Taxi Driver
EXTD=YEAR: 1995
EXTT0=
EXTT1=
EXTT2=
EXTT3=
EXTT4=
EXTT5=
EXTT6=
EXTT7=
EXTT8=
EXTT9=
PLAYORDER=
